<?xml version="1.0" encoding="utf-8"?>
<!-- Generator: Adobe Illustrator 24.0.2, SVG Export Plug-In . SVG Version: 6.00 Build 0)  -->
<svg version="1.1" id="Layer_1" xmlns="http://www.w3.org/2000/svg" xmlns:xlink="http://www.w3.org/1999/xlink" x="0px" y="0px"
	 viewBox="0 0 963.8 595.3" style="enable-background:new 0 0 963.8 595.3;" xml:space="preserve">
<style type="text/css">
	.st0{fill:url(#SVGID_1_);}
	.st1{fill:url(#SVGID_2_);}
	.st2{fill:none;stroke:url(#V_1_);stroke-width:23;stroke-linecap:round;stroke-miterlimit:10;}
</style>
<g id="logo">
	<g id="Planet">
		
			<linearGradient id="SVGID_1_" gradientUnits="userSpaceOnUse" x1="288.144" y1="293.3145" x2="337.5913" y2="425.4766" gradientTransform="matrix(0.4026 -0.9154 0.9154 0.4026 -104.0943 488.0764)">
			<stop  offset="1.281658e-06" style="stop-color:#F7F7D4"/>
			<stop  offset="9.550000e-02" style="stop-color:#F8EDCB"/>
			<stop  offset="0.2748" style="stop-color:#ECC9B2"/>
			<stop  offset="0.5189" style="stop-color:#DC8F89"/>
			<stop  offset="0.815" style="stop-color:#C33F51"/>
			<stop  offset="1" style="stop-color:#B51134"/>
			<stop  offset="1" style="stop-color:#B20A2C"/>
			<stop  offset="1" style="stop-color:#DC1A17"/>
			<stop  offset="1" style="stop-color:#B20A2C"/>
		</linearGradient>
		<path class="st0" d="M371.5,315.4c-12.7-13-30.9-17.5-47.4-13.5c-11.7,8.7-19.6,22.5-20.1,38.3c-0.9,27.5,20.7,50.5,48.1,51.4
			c4.7,0.2,9.3-0.3,13.6-1.4c1.8-1.4,3.4-2.8,5.1-4.4C390.4,366.6,390.7,335,371.5,315.4z"/>
		
			<linearGradient id="SVGID_2_" gradientUnits="userSpaceOnUse" x1="282.1914" y1="260.9416" x2="343.259" y2="424.1625" gradientTransform="matrix(0.4026 -0.9154 0.9154 0.4026 -104.0943 488.0764)">
			<stop  offset="9.550000e-02" style="stop-color:#F8EDCB"/>
			<stop  offset="0.2748" style="stop-color:#ECC9B2"/>
			<stop  offset="0.5189" style="stop-color:#DC8F89"/>
			<stop  offset="0.8256" style="stop-color:#C33F51"/>
			<stop  offset="1" style="stop-color:#B20A2C"/>
			<stop  offset="1" style="stop-color:#DC1A17"/>
			<stop  offset="1" style="stop-color:#B20A2C"/>
		</linearGradient>
		<path class="st1" d="M376.2,297.6c0.1,0,0.2,0.1,0.3,0.1c0.3,0.2,0.6,0.3,0.9,0.5c0.1,0,0.3,0.1,0.3,0.2c0.3,0.2,0.7,0.4,1,0.5
			c0.1,0,0.2,0.1,0.2,0.1c15.2,8.9,25.2,25.7,24.6,44.7c-0.7,20.3-13.4,37.3-31,44.4c-0.6,0.2-1.2,0.5-1.7,0.6
			c-0.6,0.2-1.2,0.4-1.8,0.6c-0.5,0.1-0.9,0.2-1.4,0.4c-0.2,0.1-0.4,0.1-0.5,0.1c-0.4,0.1-0.9,0.2-1.4,0.3c1.8-1.3,3.4-2.7,5.1-4.4
			c3.9-3.8,7.2-8.3,9.6-13.1c2.4-4.8,4-9.9,4.7-15.1c0.7-5.2,0.7-10.5-0.2-15.6c-1.1-6.4-3.5-12.7-7-18.3
			c-3.6-5.6-8.1-10.4-13.6-14.2c-2.6-1.8-5.4-3.4-8.2-4.7c-5.1-2.2-10.5-3.7-16.1-4.1c-5.4-0.4-10.9,0-16.1,1.3
			c7.9-5.8,17.2-9.2,26.9-9.8c0.6-0.1,1-0.1,1.6,0c0.5,0,0.9,0,1.3,0c0.2,0,0.6-0.1,0.8,0c0.2,0,0.5,0,0.7,0c0.1,0,0.3-0.1,0.5,0
			c0.5,0.1,1.1,0,1.6,0.1s1,0.1,1.5,0.2c0,0,0.1,0,0.1,0c0.5,0.1,1.1,0.1,1.6,0.2c1.1,0.1,2.2,0.4,3.2,0.6c0.5,0.1,1.1,0.3,1.6,0.4
			c0.7,0.2,1.5,0.4,2.2,0.6c0.5,0.1,1,0.3,1.4,0.4c0.3,0.1,0.4,0.1,0.7,0.2c0.6,0.2,1.1,0.4,1.6,0.6c0.1,0,0.3,0.1,0.4,0.1
			C373.5,296.4,374.9,297,376.2,297.6z"/>
	</g>
	
		<linearGradient id="V_1_" gradientUnits="userSpaceOnUse" x1="624.081" y1="431.5862" x2="390.5178" y2="27.0428" gradientTransform="matrix(1 0 0 1 0 1.4489)">
		<stop  offset="8.477106e-07" style="stop-color:#C31332"/>
		<stop  offset="0.134" style="stop-color:#B51032"/>
		<stop  offset="0.3857" style="stop-color:#911333"/>
		<stop  offset="0.725" style="stop-color:#590E35"/>
		<stop  offset="1" style="stop-color:#240A36"/>
		<stop  offset="1" style="stop-color:#B80B29"/>
		<stop  offset="1" style="stop-color:#B20A2C"/>
	</linearGradient>
	<path id="V" class="st2" d="M320.1,280.1c6.3-9.1,16.9-14.5,27.7-16.2c15.3-2.4,33.5,1,46.1,10.3c22.8,16.8,30.2,47.7,30.9,76
		c1,40.1-12,146.5,52.1,150.2c5.6-33.5,8.3-69.7,11.7-103.8c3.6-35.9,8.3-71.6,15.5-106.9c7.1-35,15.6-69.6,28.5-102.9
		c15.9-40.8,48.1-74.2,94-76.8c11.1-0.6,23.4,1.1,31.1,9.1c6.9,7.2,8.6,18.4,5.9,28.1s-9.2,17.8-16.8,24.3
		c-14.7,12.5-33.5,19.3-52.6,21.7c-52.6,6.6-105.4-12.5-151.1-36.8c-41.6-22.1-88.8-68.6-139.6-60.5c-9.1,1.4-18.5,5-24,12.5
		c-3,4.2-4.6,9.2-5,14.4c-1.4,17.9,11.9,34.7,28.6,41.5c16.9,6.9,37,5.5,54-0.1"/>
</g>
</svg>
