<?xml version="1.0" encoding="utf-8"?>
<!-- Generator: Adobe Illustrator 24.0.2, SVG Export Plug-In . SVG Version: 6.00 Build 0)  -->
<svg version="1.1" id="Layer_2" xmlns="http://www.w3.org/2000/svg" xmlns:xlink="http://www.w3.org/1999/xlink" x="0px" y="0px"
	 viewBox="0 0 963.78 595.28" style="enable-background:new 0 0 963.78 595.28;" xml:space="preserve">
<style type="text/css">
	.st0{fill:none;stroke:#000000;stroke-width:0.25;stroke-miterlimit:10;}
	.st1{fill:url(#SVGID_1_);}
	.st2{fill:url(#SVGID_2_);}
	.st3{fill:url(#SVGID_3_);}
	.st4{fill:url(#SVGID_4_);}
	.st5{opacity:0.4;}
	.st6{fill:#D499FF;stroke:#000000;stroke-miterlimit:10;}
	.st7{font-family:'MyriadPro-Regular';}
	.st8{font-size:83.326px;}
	.st9{fill:none;stroke:#A20087;stroke-width:5;stroke-miterlimit:10;}
</style>
<path class="st0" d="M332.79,378.91"/>
<linearGradient id="SVGID_1_" gradientUnits="userSpaceOnUse" x1="332.136" y1="299.2002" x2="332.1464" y2="299.2029">
	<stop  offset="0" style="stop-color:#109677"/>
	<stop  offset="1.059638e-07" style="stop-color:#8E24AA"/>
	<stop  offset="0.2722" style="stop-color:#B51F86"/>
	<stop  offset="0.5915" style="stop-color:#DD1B62"/>
	<stop  offset="0.8452" style="stop-color:#F6184C"/>
	<stop  offset="1" style="stop-color:#FF1744"/>
</linearGradient>
<path class="st1" d="M332.15,299.21c0,0-0.01-0.01-0.01-0.01L332.15,299.21z"/>
<linearGradient id="SVGID_2_" gradientUnits="userSpaceOnUse" x1="331.8252" y1="300.4017" x2="334.1399" y2="301.0219">
	<stop  offset="0" style="stop-color:#109677"/>
	<stop  offset="1.059638e-07" style="stop-color:#8E24AA"/>
	<stop  offset="0.2722" style="stop-color:#B51F86"/>
	<stop  offset="0.5915" style="stop-color:#DD1B62"/>
	<stop  offset="0.8452" style="stop-color:#F6184C"/>
	<stop  offset="1" style="stop-color:#FF1744"/>
</linearGradient>
<path class="st2" d="M333.82,302.22c-0.52-1.02-1.08-2.03-1.67-3.01C332.73,300.19,333.3,301.18,333.82,302.22z"/>
<linearGradient id="SVGID_3_" gradientUnits="userSpaceOnUse" x1="247.607" y1="307.3714" x2="324.4308" y2="327.9563">
	<stop  offset="0" style="stop-color:#109677"/>
	<stop  offset="1.059638e-07" style="stop-color:#8E24AA"/>
	<stop  offset="0.2722" style="stop-color:#B51F86"/>
	<stop  offset="0.5915" style="stop-color:#DD1B62"/>
	<stop  offset="0.8452" style="stop-color:#F6184C"/>
	<stop  offset="1" style="stop-color:#FF1744"/>
</linearGradient>
<path class="st3" d="M315.11,282.64c9.75,12.72,12.74,30.11,6.35,46.07c-9.64,24.08-36.98,35.8-61.07,26.16
	c-1.98-0.8-3.88-1.7-5.69-2.74c-2.58-3.34-4.74-7.1-6.38-11.21c-9.64-24.09,2.07-51.43,26.16-61.07c21.69-8.67,46-0.04,57.66,19.35
	C327.97,292.32,322.1,286.61,315.11,282.64z"/>
<linearGradient id="SVGID_4_" gradientUnits="userSpaceOnUse" x1="264.1588" y1="316.8249" x2="337.1112" y2="336.3725">
	<stop  offset="0" style="stop-color:#109677"/>
	<stop  offset="1.059638e-07" style="stop-color:#8E24AA"/>
	<stop  offset="0.2722" style="stop-color:#B51F86"/>
	<stop  offset="0.5915" style="stop-color:#DD1B62"/>
	<stop  offset="0.8452" style="stop-color:#F6184C"/>
	<stop  offset="1" style="stop-color:#FF1744"/>
</linearGradient>
<path class="st4" d="M338.85,325.85c0,0.09-0.01,0.19-0.01,0.28c-0.02,0.33-0.04,0.66-0.07,0.99c-0.01,0.14-0.02,0.27-0.03,0.4
	c-0.03,0.35-0.06,0.7-0.1,1.05c-0.01,0.09-0.02,0.18-0.03,0.27c-1.92,16.58-12.64,31.61-29.23,38.25
	c-17.78,7.11-37.32,2.6-50.22-9.94c-0.41-0.4-0.82-0.82-1.22-1.24c-0.41-0.42-0.8-0.85-1.19-1.29c-0.31-0.34-0.61-0.69-0.9-1.05
	c-0.12-0.13-0.24-0.27-0.35-0.42c-0.27-0.34-0.54-0.67-0.8-1.02c1.81,1.04,3.71,1.94,5.69,2.74c24.09,9.64,51.43-2.08,61.07-26.16
	c6.39-15.96,3.4-33.35-6.35-46.07c7.99,4.54,14.52,11.36,18.71,19.58c0.23,0.45,0.46,0.91,0.67,1.38c0.18,0.38,0.36,0.76,0.52,1.15
	c0.11,0.23,0.21,0.46,0.3,0.69c0.08,0.19,0.16,0.39,0.24,0.58c0.06,0.14,0.11,0.28,0.16,0.42c0.19,0.48,0.37,0.96,0.54,1.45
	c0.16,0.45,0.31,0.91,0.46,1.37c0.01,0.04,0.02,0.07,0.03,0.11c0.16,0.5,0.31,0.99,0.45,1.5c0.29,1.01,0.53,2.03,0.74,3.05
	c0.11,0.52,0.21,1.04,0.3,1.56c0.12,0.71,0.23,1.43,0.31,2.15c0.06,0.48,0.11,0.96,0.15,1.43c0.02,0.22,0.04,0.45,0.06,0.67
	c0.04,0.55,0.08,1.1,0.1,1.64c0.01,0.13,0.01,0.26,0.01,0.39C338.92,323.13,338.92,324.49,338.85,325.85z"/>
<path class="st0" d="M842.17,297.85"/>
<path class="st0" d="M842.17,297.85"/>
<path class="st0" d="M842.17,297.85"/>
<path class="st5" d="M338.91,323.51c0,0.78-0.02,1.56-0.06,2.34c0,0.09-0.01,0.19-0.01,0.28c-0.02,0.33-0.04,0.66-0.07,0.99
	c-0.01,0.14-0.02,0.27-0.03,0.4c-0.03,0.35-0.06,0.7-0.1,1.05c-0.01,0.09-0.02,0.18-0.03,0.27c-0.11,1-0.27,1.99-0.45,2.98
	c-0.01,0.08-0.03,0.15-0.04,0.23c-4.02,21.86-23.16,38.44-46.19,38.44c-11.45,0-21.95-4.11-30.1-10.94
	c-0.14-0.12-0.28-0.24-0.42-0.36c-0.3-0.26-0.6-0.51-0.89-0.77c-0.46-0.41-0.91-0.83-1.36-1.26c-0.41-0.4-0.82-0.82-1.22-1.24
	c-0.41-0.42-0.8-0.85-1.19-1.29c-0.31-0.34-0.61-0.69-0.9-1.05c-0.12-0.13-0.24-0.27-0.35-0.42c-0.28-0.34-0.55-0.68-0.82-1.03
	c0.01,0,0.01,0.01,0.02,0.01c1.81,1.04,3.71,1.94,5.69,2.74c24.09,9.64,51.43-2.08,61.07-26.16c6.39-15.96,3.4-33.35-6.35-46.07
	c7.99,4.54,14.52,11.36,18.71,19.58c0.23,0.45,0.46,0.91,0.67,1.38c0.18,0.38,0.36,0.76,0.52,1.15c0.11,0.23,0.21,0.46,0.3,0.69
	c0.14,0.33,0.27,0.66,0.4,1c0.19,0.48,0.37,0.96,0.54,1.45c0.16,0.45,0.31,0.91,0.46,1.37c0.01,0.04,0.02,0.07,0.03,0.11
	c0.16,0.5,0.31,0.99,0.45,1.5c0.28,1,0.53,2.02,0.74,3.05c0.11,0.52,0.21,1.04,0.3,1.56C338.68,318.09,338.91,320.77,338.91,323.51z
	"/>
<g>
	<g>
		<g>
			<g>
				<g>
					<path d="M232.01,237.76c1.73-0.07,2.29-0.49,2.38-0.57c0.08-0.12-0.33-0.13-0.69-0.12c-0.36,0.03-0.68-0.03-0.43-0.04
						c0.13,0,0.38-0.07,0.86-0.14c0.49-0.03,1.12-0.28,2.04-0.63c-0.33,0.39-0.77,0.86-1.44,1.2c-0.35,0.13-0.75,0.25-1.19,0.34
						C233.08,237.88,232.56,237.82,232.01,237.76z"/>
					<path d="M300.02,125.29c-2.78,3.22-7.2,5.44-12.05,6.43c-4.87,1.01-10.12,0.89-15.31,0.34c-10.43-1.12-20.77-3.68-29.9-7.2
						c-2.08-0.94,1.22-1.13-3.35-3.28c-4.23-1.91-8.83-4.96-12.54-9.47c-1.83-2.26-3.46-4.83-4.75-7.64
						c-1.25-2.82-2.18-5.86-2.68-9.01c-1.07-6.27,0.04-13.04,3.22-18.35c1.56-2.67,3.67-4.92,5.97-6.72
						c2.32-1.8,4.86-3.14,7.41-4.11c-0.33,0.32-0.64,0.68-0.95,1.02c0.93-0.43,1.91-0.86,2.89-1.41c1.01-0.47,2.03-1.05,3.12-1.51
						c2.15-0.97,4.48-1.8,6.74-1.92c0.07,0.31-1.36,0.61-0.29,0.92c0.49-0.54,2.49-0.89,4.61-0.95c1.06-0.08,2.14-0.01,3.08-0.06
						c0.94,0.02,1.75-0.01,2.25-0.14c1.73,0.62,1.46,1.29,3.61,2.1c0.9-0.21,1.81-0.35,2.73-0.53c3.81-0.42,8.14,0.98,12.47,3
						c4.36,1.99,8.8,4.55,13.57,6.23c-0.54,0-1.51-0.27-0.91,0.31c15.08,5.88,32.57,16.03,48.39,24.65
						c-0.81-0.03-1.74,0.23-1.04,1.13c1.34-0.53,6.29,2.03,10.56,4.29c1.29,2.11,7.68,3.29,12.23,6.71l-0.55-0.02
						c4.23,1.07,5,3.75,8.67,4.2l1.83,2.13c2.41-0.49,4.81,3.78,8.22,4.78l0.07-0.35c3.02,1.29,4.09,2.83,6.85,4.09l0.16,0.31
						c6.37,3.1,9.53,5.89,10,4.68c1.67,2.1-6.22-2.92-3.54,0.28c20.99,10.19,42.31,21.24,64.21,29.56c2.31,1.4,3.86,2.12,4.25,2.79
						c2.27,0.61,8.43,2.67,10.64,2.71c-0.76-0.21,1.25,1.07,2.41,1.5c1.97,0.86,3.19,0.87,4.45,0.9c1.27,0,2.57,0.02,4.75,0.92
						c-1.88-0.17-2.6,0.06-2.13,0.69c4.12,0.15,9.24,1.6,13.92,2.31c-0.76,0.06-1.91-0.06-1.82,0.37c2.65-0.01,4.93,0.53,7.14,1.12
						c2.21,0.53,4.35,1.07,6.64,1.12l-1.8,0.43c3.52,1.11,4.12,0.76,4.6,0.4c0.48-0.37,0.83-0.8,3.91-0.09
						c-1.53,0.01-1.04,0.38-1.36,0.64c3-0.22,6.83,0.05,10.65,0.25c3.82,0.2,7.64,0.39,10.55,0.17c-0.35,0.1-0.26,0.3-0.26,0.3
						c6.32-0.07,13.02-0.12,19.74-1.99c1.26-0.11,1.15,0.38,1.54,0.68c0.19,0.15,0.51,0.25,1.2,0.21c0.69-0.03,1.72-0.25,3.34-0.78
						c-0.16-0.35,0.44-0.73,1.35-1.16c0.9-0.46,2.11-0.95,3.2-1.41c2.15-1.04,3.81-1.92,1.69-1.98c1.34-0.42,2.79-1.1,4.36-1.71
						c0.75-0.37,1.53-0.74,2.3-1.12c0.38-0.19,0.78-0.37,1.15-0.58c0.37-0.22,0.73-0.44,1.09-0.65c0.72-0.44,1.44-0.85,2.09-1.3
						c0.64-0.48,1.25-0.95,1.82-1.38c0.28-0.22,0.55-0.44,0.82-0.65c0.25-0.23,0.47-0.45,0.69-0.67c0.43-0.43,0.81-0.83,1.11-1.19
						c-0.74,1.04,0.06,0.93,0.65,0.94c0.58,0.01,0.94,0.15-0.81,1.81c1.09-0.59,2.24-1.15,3.32-1.82c0.06,0.86-2.97,2.42-1.57,2.21
						c0.44-0.44,1.13-1.05,1.83-1.85c0.69-0.81,1.47-1.72,2.25-2.63c0.71-0.96,1.42-1.91,2.05-2.71c0.62-0.81,1.09-1.54,1.47-1.94
						c0.23-0.53,0.45-1.06,0.67-1.6c0.2-0.54,0.35-1.11,0.52-1.67c0.32-1.13,0.69-2.25,0.95-3.5c0.29-1.23,0.67-2.49,0.97-3.92
						c0.16-0.7,0.38-1.42,0.58-2.18c0.16-0.77,0.35-1.57,0.58-2.41c-0.19,1.64,0.33,1.33,0.86,0.85c0.53-0.48,1.06-1.13,0.85,0.02
						l0.02-1.3l-0.09-1.31l-0.21-2.55c-0.34-1.69-0.51-3.32-1.06-4.88c-0.03-1.11,0.26-1.24,0.52-1.5c0.12-0.13,0.26-0.29,0.3-0.63
						c0.03-0.33-0.02-0.84-0.2-1.65c-0.19,0.11-0.38-0.19-0.57-0.62c-0.19-0.43-0.38-1.01-0.67-1.45c-0.04-0.41-0.47-2.67-1.26-4.83
						c-0.29-1.12-0.75-2.18-1-3.11c-0.3-0.89-0.42-1.65-0.23-2.04c0.03-1.2,2.05,3.17,1.3,0.66c-0.49-0.97-0.98-1.64-1.38-2.2
						c-0.39-0.57-0.8-0.97-1.17-1.39c-0.37-0.42-0.77-0.82-1.25-1.31c-0.46-0.51-1.03-1.08-1.77-1.85l0.08-0.19
						c-0.45-0.55-1.11-1.13-1.79-1.68c-0.72-0.5-1.42-1-2.05-1.27c-1.25-0.57-1.94-0.57-0.99,0.64c0.75,0.58,0.74,0.3,0.79,0.13
						c0.05-0.18,0.18-0.26,1.13,0.82c-0.51-0.14-1.11-0.45-1.84-0.79c-0.7-0.36-1.5-0.78-2.37-1.24c-1.73-0.9-3.71-1.88-5.6-2.67
						c1.37,0.36,1.38-0.06,2.09-0.2c-5.58-1.39-11.38-2.44-17.56-2.3c-0.06,0.34,0.52,0.07,1.24-0.25c0.73-0.31,1.6-0.6,2.04-0.37
						c-3.93-0.96-8.19-0.58-12.06,0.19c-3.9,0.8-7.42,1.93-10.75,2.46c0.97-0.5,0.88,0.72,0.75,0.56c-3.52,1.26-3.77,0.39-5.88,1.86
						c-0.24-0.2-0.96,0.18-1.84,0.84c-0.87,0.69-1.95,1.6-3.01,2.35c-0.44,0.56-0.62,0.6-0.46,0.33c0.15-0.29,0.67-0.85,1.64-1.45
						c-1.46,1.11-5.05,3.94-8.83,7.45c-3.8,3.5-7.71,7.76-10.76,10.81c0.2,0.06-0.34,1.32-1.09,2.73c-0.74,1.42-1.61,3.07-2.22,3.84
						l-0.28-1.16c-1.54,1.11-3.76,5.47-4.57,5.33c-0.71,2.09,1.32-1.48,3.38-4.81c2.07-3.31,4.19-6.37,2.74-3.87
						c-0.78,0.33-1.66,2.18-2.41,3.68c-0.73,1.52-1.26,2.75-1.42,1.88c-2.29,3.29-3.48,7.13-6.21,9.95
						c0.69-0.88,0.63-3.45-1.02-0.64c-2.79,5.04-0.48,1.62-2.54,5.82c-0.38,0.91-0.75,1.82-1.11,2.74c0.67,0.59-2.56,4.47-0.68,3.05
						c-0.97,0.28-3.44,7.68-4.47,6.46l-0.66-1.25c-1.07,2.27-0.79,4.21-1.22,6.19c-0.25,0.24-0.76,0.72-0.87,0.52
						c1.42,1.16-2.9,5.23-2.95,8.51c-2.75,4.5-5.61,12.06-7.66,13.86c-0.58,1.95-1.16,3.8-1.77,5.71c-0.6,1.92-1.32,3.86-2.37,5.91
						c0.2-0.91,0.63-2.1,0.37-2.48c-1.58,2.47-1.42,3.31-2.16,5.86c-0.02-0.65-3.16,4.95-4.98,7.7c-0.53,1.95-0.39,2.71-0.11,3.04
						c0.28,0.33,0.73,0.24,0.93,0.54c-2.91,2.82-2.84,11.01-5.92,14.77c0.25-1.38,1.21-5.79-0.36-2.8c-1.46,1.43-1.8,3.28-2.12,5.43
						c-0.35,2.14-0.51,4.63-1.86,7.3l1.84-0.91c-1.68,2.21-1.92,8.53-3.14,7.49c-0.12,2.04-2.64,6.48-1.08,6.28
						c-1.08,2.2-1.92,4.76-2.72,7.4c-0.81,2.64-1.56,5.38-2.32,7.99c-0.76,2.61-1.53,5.1-2.36,7.25c-0.83,2.15-1.64,4-2.64,5.27
						c-0.13,1.41-1.25,4.72-0.36,4.21c1.35-2.03,0.27-3.28,1.02-3.97c-0.28,1.22,0.03,1.59,0.19,1.76c-1.08,2.84-1.79,5.12-2.2,2.05
						c-1.28,3.15-1.14,4.98-1.01,7.04c0.06,1.03,0.12,2.12-0.01,3.45c-0.13,1.34-0.44,2.92-1.05,4.98
						c-0.48-0.52-0.85,0.06-1.33,2.52l-0.11,4.86c-1.49,5.33-2.02,2.76-3.03,2.66c-0.51,2.92-1.39,6.45-0.97,7.92
						c-0.69,1.07-1.32,2.16-1.98,3.25c1.43-2.37,0.08,2.52,0.04,3.93l0.05-1.42c-0.52,0.45-0.98,3.86-1.21,5.58
						c0.69-0.27,1.65-3.64,2.22-5.47c0.12,1.58-0.47,3.86-0.38,5.92c-0.82-0.85-1.68,4.58-2.26,6.86c-0.77,2.6,0.23,3.15,0.03,3.92
						c-0.51-0.03-0.91,4.32-1.21,2.11c0.02-0.94,0.86-1.97,0.75-3.55c-0.74,1.67-1.55,1.3-1.62,5.05c-0.05,2.83,2.03-0.33,0.43,4.74
						c0.02-1.41-0.32-1.74-0.46-2.86l-1.42,4.76l0.83,0.37c-0.35,0.61-0.34,0.15-0.51,0.43c0.65,1.62-1.13,7.47-0.3,8.76
						c-0.4,2.46-1.52,5.06-2.04,7.39l0-0.46c-1.01,2.78-1.33,6.66-1.15,9.17l-0.17-0.16c-0.34,1.55-0.84,5.29-0.66,7.33
						c-1.31,3.86-3.53,0.79-3.13,5.37c-0.61,4.04,0.61,6.58,1.43,5.05c-0.87,3.58-1.27,7.48-1.75,11.29
						c-0.46,3.82-0.98,7.57-2.16,10.83c0.2,1.09,0.52,0.47,0.42,2.65c-1.95,10.6-2.1,22.68-5.02,30.94
						c0.05-3.15-0.85-0.33-1.37-0.33c0.45,2.66-1.22,2.97,0.01,4.07c0.83-0.15,1.19,0.16,1.9-2.81c-0.41,6.44-1.67,16.13-2.88,19.58
						c0.6-1.72,0.67-0.32,0.72,1.1c-1.21-0.63-2.01,4.06-2.02,7.68l0.71,0.6l-0.55,1.11c-0.18,0.38-0.35,0.66-0.58,1.34
						c-0.01,1.09,0.31,1.8,0.45,2.99c0.14,1.16,0.08,2.9-0.64,5.6c-0.32,0.07-0.63,0.19-0.97,0.99c-0.11,1.52-0.24,3.19-0.37,4.95
						c-0.08,0.91-0.17,1.84-0.26,2.78c-0.05,0.47-0.1,0.95-0.15,1.43l-0.08,0.72l-0.04,0.36l-0.02,0.18c-0.01,0.02,0,0.08-0.02,0.07
						l-0.07-0.03c-1.58-0.58-3.25-1.24-4.91-1.99c-0.83-0.37-1.66-0.76-2.47-1.17c-0.81-0.41-1.55-0.88-2.28-1.34
						c-1.6-1.25-3.09-2.45-4.46-3.6c-0.29-0.13-0.6-0.27-0.92-0.41c-0.32-0.16-0.65-0.32-0.97-0.47c-0.67-0.3-1.28-0.57-1.69-0.75
						c-0.43-0.17-0.67-0.2-0.55,0.03c0.06,0.11,0.21,0.29,0.48,0.54c0.13,0.13,0.29,0.28,0.49,0.44c0.2,0.14,0.42,0.31,0.68,0.5
						c-0.59-0.39-1.16-0.86-1.71-1.31c-0.53-0.43-1.05-0.85-1.56-1.27c-0.65-0.58-1.31-1.08-1.85-1.64c-1.1-1.12-2.07-2.11-2.91-3
						c-0.87-0.87-1.47-1.76-1.98-2.51c-0.51-0.76-0.88-1.42-1.1-2.01c-5.18-3.84-10.31-10.03-14.13-17.14
						c-3.88-7.1-6.51-15.03-8.08-22.17l0.67,0.28c-0.38-3.92-1.47-1.76-1.61-4.54c0.78,1.13,0.64-3.14,1.88-0.27
						c-0.1-1.39-0.3-2.5-0.55-3.46c-0.21-0.96-0.47-1.76-0.76-2.5c-0.55-1.48-1.27-2.72-1.52-4.52c-0.41-0.24-0.22,0.48-0.06,1.18
						c0.17,0.7,0.35,1.37-0.19,1.08c-0.39-0.59-0.13-7.78-1.25-8.55c0.4-1.41,1.3-0.36,1.8,0.35l-0.7-3.33
						c0.61-2.07,1.29,0.26,2.04,2.52c0.71,2.26,1.62,4.45,2.27,2.29l-0.31-3.01c1.09-2.9,1.72,7.86,1.81,0.33
						c-0.75-3.21-2.39-6.03-2.9-3.07c-0.36-6.88-2.86-3.19-2.6-10.67c0.73-2.02,0.03,5.99,1.02,4.57c0.51-1.75,0.4-3.5,0.26-5.22
						c-0.12-1.71-0.33-3.38-0.08-4.93c-0.59,3.43-1.68,0.44-1.7-1.81c0.82-3.74,0.92,2.52,1.42-2.8c-0.62-0.93-0.66-5.86-1.51-1.68
						c-1.35-2.06,0.91-5.51,0.05-8.5c1.24-1.61,1.9,5.69,3.03-0.05c-1.14,0.8-0.61-7.28-2.47-4.4c0.55-2.24,1.39-2.38,1.83-0.65
						c0.99-3.16-0.94-8.04,1.21-8.84l-0.91-1.23c0.46-0.96,0.9-2.37,1.66-3.93c0.37-2.82-0.37-9.19,1.18-8.76
						c-0.06-0.92,0.66-7.28-0.69-4.93c-1.07,3.88,0.33,4.63-1.4,6.67c1.54-2.67,0.45-5.72,0.29-8.04l0.65-0.31
						c-0.12-1.37,0.3-4.48-0.31-5.37c0.28,1.06,0.74,0.56,0.96-0.51l-0.84-1.48c-0.09-5.49,1.75-1.18,1.75-6.52l0.53,4.08
						c-0.1-0.9,0.85-2.67,0.68-5.24c-0.82-1.03-1.83-2.89-2.48-3.74c-0.34-2.96,1.04-1.32,0.12-4.23c0.39,1.27,0.68,2.54,1.01,3.83
						c0.26,0.59,1.51-2.58,1.36-6.59c-0.29-2.57-1.83-6.43-2.05-2.42c-0.13-1.98,0.24-4.79,0.95-3.25c-0.55-4.49-0.88,0.64-1.64-3.2
						c0.39-1.61,0.83-6.62,1.17-9.71c0.64,1.29,1.35,2.58,1.93,3.9c-0.07-0.91-0.21-1.82-0.32-2.72c1.62,3.39,0.63-1.9,2.1-0.06
						c-0.08-1.9-0.74-4.13-1.38-5.87c-0.51,2.87-1.4,1.43-2.38-0.43c-0.98-1.87-2.02-4.19-2.75-3.25c-0.95-3.55-0.21-4.88,0.32-6.24
						c0.54-1.35,0.67-2.7-1.66-6.08c-0.12,1.34-2.35-1.79-0.66,2.54c-0.99-4.47-2.48-2.5-3.39-7.79c1.9,3.57,0.4-4.66,3.15,0.53
						c-0.69-0.19,0.59,3.21,0.96,4.04c0.14-2.03,1.85-0.12,0.41-4.67c-0.97-2.75-2.49-6.43-3.13-5.58c-0.91,0.47,1.64,4.09,0.03,2.7
						c-1.17-2.61-1.45-4.28-1.8-5.49c-0.39-1.19-0.78-1.93-2.06-2.66c0.77,1.62,1.01,2.73,0.96,3.46c-0.08,0.74-0.41,1.09-0.74,1.19
						c-0.59-1.25-1.32-2.42-1.97-3.63l0.93,0.47c-1.09-3.12-1.54-3.46-2.07-3.72c-0.51-0.27-1.05-0.49-2.37-3.36
						c-0.03-1.09-0.09-2.19-0.21-3.25c0.92,0.36,1.83,2.53,2.68,4.34c0.43,0.91,0.84,1.72,1.21,2.21c0.35,0.5,0.68,0.65,0.99,0.19
						c-0.84-1.93-1.7-3.07-2.44-4.23c-0.38-0.57-0.74-1.15-1.09-1.81c-0.39-0.64-0.77-1.37-1.15-2.29c0.57,0.69,1.22,1.7,1.76,2.4
						c-0.31-0.69-0.15-1.62-0.4-3c-0.29-1.34-0.9-3.22-3.2-5.34c-2.15-2.31-1-0.33-1.63-0.02c-1.85-2.8-3.41-4.35-4.66-5.74
						c-1.23-1.41-2.44-2.44-3.83-4.05c0.8-0.09-0.37-1.59-1.27-2.68c-0.91-1.05-1.52-1.77,0.59-0.5c0.42,1.09,2.18,3.48,4.11,5.75
						c1.8,2.38,3.94,4.56,5.07,5.26c0-1.49,0.67-0.33,1.62,1.24c0.47,0.79,1.01,1.67,1.57,2.39c0.53,0.73,1.06,1.31,1.6,1.43
						c-0.33-0.6-0.6-1.14-0.82-1.62c-0.23-0.47-0.42-0.88-0.55-1.24c-0.27-0.73-0.35-1.29-0.32-1.74c0.05-0.91,0.51-1.4,0.7-2.07
						c-0.39-0.68-0.88-1.28-1.36-1.79c-0.52-0.48-0.98-0.9-1.33-1.22c-1.18,0.04,0.02,1.66-0.74,2.33
						c-1.72-2.54-3.48-5.01-5.41-6.87c-0.94-0.95-1.84-1.82-2.69-2.56c-0.88-0.7-1.71-1.28-2.44-1.73
						c-1.06-1.76,0.11-2.04,1.82-0.31c-2.58-2.58-5.32-5.16-8.13-7.6c-2.82-2.43-5.72-4.7-8.52-6.75c1.42,1.89-0.25,0.91-2.02-0.19
						c-1.82-1.05-3.76-2.2-2.81-0.85c0.73,0.55,1.41,1.13,1.98,1.68c0.56,0.56,1.01,1.1,1.3,1.54c0.59,0.89,0.55,1.42-0.47,1.18
						c-1.81-1.32,0.45-0.54-0.15-1.35c-2.85-0.82-3.08-3.58-6.23-3.77c2.95,1.36,3.47,1.13,3.46,0.45c0-0.68-0.57-1.76,0.28-2.01
						c-2.28-0.88-2.12-1.05-1.92-1.29c0.2-0.24,0.47-0.58-1.68-1.69c-2.31-0.83-4.9-1.67-7.52-2.51c-2.65-0.79-5.34-1.6-7.92-2.24
						c-3-1.58-7.15-2.66-11.26-3.2c-4.12-0.56-8.17-0.61-11.12-0.64c-3.09-0.7-0.96-2.08-4.42-2.31c-4.03,0.21,3.03,1.39-2.94,1.01
						l0.55-0.31c-0.89,0.21-3.63,0.18-6.34,0.55c-1.35,0.18-2.69,0.49-3.76,0.85c-1.07,0.42-1.87,0.91-2.18,1.5l1.45-1.9
						c-1.12,0.12-2.06,0.66-2.9,1.07c-0.16-0.47-1.55-0.56,0.14-1.36c-3.93-0.1-7.54,2.42-11.16,4.11c0.91-0.09,1.82-0.16,2.73-0.19
						c-3.02,1.6-5.5,2.86-7.75,4.4c-2.22,1.52-4.33,3.36-5.5,6.16l-0.72-0.55c-0.35,0.98-0.5,2.02-0.61,3.01l0.02,0.66
						c-0.19-0.24-0.38-0.23-0.57-0.03c-0.09,0.1-0.19,0.25-0.27,0.44c-0.07,0.19-0.1,0.42-0.14,0.68c-0.1,0.52-0.01,1.14,0.13,1.74
						c0.19,0.59,0.45,1.16,0.82,1.56c-1.02-1.49-1.74-3.37-1.7-5.43c0.03-1.75,0.41-3.54,1.09-5.24c0.54-0.61,0.78-0.65,0.8-0.46
						c0.03,0.2-0.13,0.65-0.23,1.16c-0.28,1-0.34,2.13,0.42,1.5c0.67-0.51,1.73-2.02,2.96-3.37c1.19-1.37,2.45-2.66,2.62-3.3
						c-1,0.67-1.47,1.11-1.84,1.53c-0.37,0.43-0.65,0.86-1.15,1.63c-0.72-0.13-0.47-0.86,0.14-1.78c0.61-0.92,1.6-1.96,2.15-2.84
						c-1.07,0.77-2.75,1.79-2.7,2.28c1.54-2.23,3.73-3.99,7.62-5.92c-2.41,1.73,1.76-0.01,0.91,0.81c-0.08-0.56,0.78-1.38,2.32-2.16
						c0.77-0.39,1.69-0.8,2.75-1.19c1.07-0.35,2.25-0.73,3.53-1.02c0.99,0.06,2.05-0.14,3.2-0.44c1.16-0.26,2.39-0.72,3.71-1.11
						c2.63-0.83,5.63-1.66,8.7-1.72c-2.39,1.3-5.36,2.49-8.8,3.62c1.88-0.05,2.88-0.27,3.91-0.39c1.02-0.13,2.04-0.32,3.92-0.18
						c0.85-0.49,1.58-1.09,2.72-1.61c0.57-0.27,1.24-0.53,2.08-0.76c0.84-0.21,1.85-0.38,3.1-0.51l0.25,0.81
						c2.23-0.12,3.38-0.51,4.67-0.71c0.65-0.11,1.34-0.2,2.23-0.22c0.88,0.02,1.96,0.11,3.38,0.34c4.86,0.88,9.7,2.09,14.16,3.53
						c4.46,1.43,8.53,3.08,11.9,4.67l-0.08,0.86c2.22,0.1,5.44,1.44,8.6,3.26c3.18,1.8,6.33,3.95,8.82,5.3
						c3.65,3.11,7.73,6.28,11.11,9.44c0.84,0.79,1.63,1.58,2.39,2.33c0.74,0.77,1.41,1.53,2.03,2.25c1.21,1.45,2.08,2.83,2.59,3.98
						c5.53,6.28,10.06,12.78,13.91,19.73c3.85,6.95,6.94,14.42,9.32,22.77l-2.01-2.41c1.75,2.68-0.01,2.1,1.01,4.94
						c0-3.62,2.28,3.7,3.51,5.63c0.2,1.94,0.53,3.98,0.97,6.05c0.38,2.08,0.8,4.21,1.3,6.3c0.88,4.2,1.87,8.3,2.56,11.69l-0.78,0.34
						c2.13,6.78,1.11,15.18,0.52,23.71c-0.39,0.97-1.21,2.48-1.26,5.01c0.99,4.69,0.74,7.12,0.85,13.93
						c-0.5,4.92-1.78,12.81-2.89,17.67c-0.19,9.24-1.09,18.41-1.58,27.6c-0.08,2.29-0.23,4.6-0.24,6.89l-0.04,3.45l0.07,3.44
						c0.02,2.3,0.25,4.58,0.4,6.87l0.43,3.38l0.23,1.69l0.33,1.67l-0.77,1.43c2.16,8.65,4.85,18.06,8.65,26.63
						c3.89,8.48,9.03,16.04,14.67,20.49c-0.73,0.11-1.43,0.16-2.13,0.2c0.18,0.23,0.36,0.47,0.56,0.69l0.64,0.62
						c0.44,0.41,0.89,0.81,1.35,1.19c0.91,0.76,1.81,1.45,2.7,1.84c0.21,0.11,0.42,0.21,0.62,0.29c0.11,0.02,0.21,0.04,0.31,0.05
						c0.19,0.01,0.35-0.01,0.48-0.06c0.26-0.11,0.4-0.34,0.43-0.68c0.26,0.37,0.7,0.62,1.11,0.83c0.42,0.22,0.83,0.37,1.23,0.47
						c0.2,0.06,0.39,0.13,0.58,0.22c0.1,0.04,0.19,0.09,0.29,0.15c0.04,0.01,0.12,0.09,0.13,0.05l0.04-0.11
						c0.11-0.27,0.3-0.37,0.62-0.28c0.26-0.82,0.17-1.65,0-2.28c-0.09-0.32-0.19-0.61-0.28-0.89c-0.05-0.14-0.09-0.27-0.12-0.41
						l-0.01-0.05l-0.01-0.03l0-0.09c0-0.12,0.01-0.24,0.01-0.36c0.01-0.24,0.03-0.49,0.05-0.76c1.89-10.03,2.26-13.81,3.2-23.38
						l-0.41,2.35c0.22,1.1,0.89,1.28,1.31-1.08c0-3.61,2.16-13.02-0.24-9.74c1.26-5.02,1.84-10.98,2.47-16.91
						c0.62-5.93,1.39-11.81,2.85-16.65c-0.65,0.77-0.39-1.75-0.59-2.85c0.62-4.47,1.59-9,2.44-13.33c0.84-4.33,1.53-8.44,1.65-12.07
						c0.49-1.38,0.53,2.4,1.16-1.22c0.15-2.18-0.69-0.17-0.54-2.85c0.76-7.3,2.26-14.57,3.86-21.64c1.7-7.06,3.45-13.94,4.57-20.51
						c3.67-23.44,9.89-47.45,15.88-69.41l0.3,0.36c0.36-3.86,1.99-8.06,3.47-12.08c0.74-2.01,1.45-3.98,1.94-5.86
						c0.55-1.86,0.89-3.62,0.83-5.24c0.92-1.6,2.32-6.5,2.62-4.99c0.45-3.05,2-7.02,3.67-11.31c1.79-4.24,3.66-8.81,4.55-13.17
						c-0.31,0.74-0.4,1.21-0.56,2.14c0.97-2.01,1.79-4,2.55-5.99c0.38-0.99,0.74-1.99,1.09-2.99c0.36-0.99,0.76-1.97,1.14-2.96
						c1.53-3.96,3.08-7.98,5.22-12.16c-0.21,0.95-0.75,2.59-0.5,2.99c2.08-3.03,1.7-8.6,4.28-9.64c0.85-1.89-0.25-1.72-0.73-0.54
						c4.66-9.17,8.77-18.94,13.62-28.52c1.16-2.42,2.33-4.84,3.49-7.27c1.13-2.44,2.36-4.85,3.62-7.26c2.51-4.82,5.2-9.6,8.16-14.24
						c4.89-6.22,5.81-5.84,6.06-5.44c0.14,0.21,0.15,0.46,0.52-0.02c0.38-0.48,1.06-1.69,2.76-4.33c0.92-0.56-0.1-1.03,0.31-0.92
						c1.35-2.03,2.99-3.12,4.48-4.05c1.53-0.91,2.8-1.75,3.67-3.25c-1.82,0.15,1.16-2.02,0.76-2.61c0.93-0.8,1.87-1.43,2.69-2.03
						c0.84-0.58,1.57-1.13,2.3-1.58c1.45-0.88,2.67-1.62,3.82-2.33c1.18-0.67,2.28-1.33,3.45-2.15c1.22-0.76,2.52-1.66,4.11-2.83
						c-0.08,0.26-0.15,0.54-0.22,0.82c0.89-0.74,1.86-1.4,2.85-2.07c0.97-0.68,2.06-1.28,3.17-1.86c2.23-1.11,4.59-2.01,6.94-2.75
						c2.36-0.71,4.71-1.28,6.97-1.8c2.26-0.48,4.43-0.98,6.46-1.48c6.65-0.15,13.32,0.77,19.72,2.91
						c6.37,2.14,12.52,5.57,17.59,10.5c5.07,4.92,8.83,11.35,10.53,18.25c1.76,6.91,1.59,14.12-0.01,20.74
						c-1.64,6.63-4.57,12.75-8.38,18.19c-3.82,5.44-8.53,10.24-14.09,14.06c-11.07,7.54-23.81,11.06-36.26,12.17
						c-12.35,0.98-24.36-0.09-35.9-1.88c-11.59-1.76-23-4.35-34.17-7.68c-22.36-6.65-43.74-16.04-64.35-27.2
						c-4.51-3.24-6.93-4.94-9.58-6.5c-2.67-1.54-5.56-2.92-10.97-5.53c0.55,0.01,1.23,0.33,0.65-0.28c-1.16,0.85-7.43-4.01-9.03-3.5
						c-14.82-8.6-28.47-16.52-43.72-25.36c2.46,1.28,4.21,1.06,1.32-0.53l-3.4-1.02l-0.3-0.6c-2.04-0.97-4.49-1.64-2.69-0.11
						c-9.65-5.29-19.15-10.67-28.63-15.92c-4.74-2.63-9.48-5.22-14.23-7.76c-4.76-2.57-9.41-4.99-14.03-7.06
						c-9.21-4.09-18.6-6.67-27.32-5.28c-4.39,0.63-8.58,2.19-11.91,4.54c-1.67,1.17-3.12,2.54-4.31,4.08
						c-1.2,1.54-2.01,3.26-2.68,5.07c-1.47,3.37-1.89,8.36-0.47,13.29c0.66,2.45,1.67,4.87,2.92,7.05c1.28,2.17,2.76,4.1,4.26,5.72
						c0.54,0.62,1,1.26,1.6,1.88c0.61,0.6,1.16,1.27,1.82,1.83c0.64,0.58,1.26,1.18,1.95,1.71c0.67,0.55,1.35,1.1,2.07,1.59
						c2.84,2.05,5.98,3.78,9.29,5.22c6.64,2.88,13.96,4.59,21.44,5.54c7.42,0.94,14.79,0.97,20.87-1.69
						c2.88-1.26,5.55-3.33,7.39-5.85c1.86-2.51,2.82-5.41,2.57-8.07c0,0,0.2,0.16,0.53,0.59c0.17,0.22,0.36,0.5,0.52,0.88
						c0.18,0.38,0.36,0.85,0.46,1.43c0.23,1.15,0.27,2.79-0.4,4.8C303.85,120.72,302.46,123.1,300.02,125.29z"/>
					<path d="M224.72,234.38c-0.28-0.72-0.99-2.01-1.16-2.86c-0.17-0.87-0.01-1.11,1.22-0.02c-0.13,0.32-0.04,1.05,0.09,1.67
						C224.99,233.78,225.09,234.35,224.72,234.38z"/>
					<path d="M304.9,218.87c0.2-0.11,1.12,0.87,1.32,1.13c-1.08-0.55-2.34-0.55-3.03-1.31C304.3,219.21,304.28,218.85,304.9,218.87z
						"/>
					<path d="M324.97,233.67c-0.65,0.12-4.89-3.06-7.42-4.87C320.09,230.29,322.58,231.9,324.97,233.67z"/>
					<path d="M337.74,252.95c0.66,1.93,0.13,1.61-1.29-0.62C336.6,251.99,337.2,252.64,337.74,252.95z"/>
					<path d="M339.74,253.61c1.08,1.6,1.23,2.63,1.4,3.61c0.19-0.15-0.4-1.1-0.95-1.96C339.63,254.41,339.16,253.6,339.74,253.61z"
						/>
					<path d="M355.46,301.29c0.29,1.18,1.13,3.73,0.63,4.95c0.13-0.66-0.23-2.11-0.55-3.28C355.2,301.8,354.96,300.9,355.46,301.29z
						"/>
					<path d="M358.55,324.75c-0.02,0.77-0.13,1.08,0.06,1.98c-0.24,1.41-0.7-0.07-0.77-1.26L358.55,324.75z"/>
					<polygon points="456.61,232.89 456.05,235.5 455.63,234.94 					"/>
					<path d="M570.26,102.21c2.38,0.52,1.36,1.11,1.69,1.33C569.93,102.82,572.96,103.16,570.26,102.21z"/>
					<polygon points="555.85,173.09 556.61,172.87 556.66,174.09 					"/>
				</g>
			</g>
		</g>
	</g>
</g>
<text transform="matrix(1.0454 -0.2598 0.2412 0.9705 477.1469 276.4858)" class="st6 st7 st8">enera</text>
<path class="st9" d="M457.44,305.15c67.51-20,135.19-39.41,203.03-58.22c15.61-4.33,32.12-8.64,47.77-4.47
	c22.26,5.93,37.7,30.63,33.28,53.23"/>
</svg>
