<?xml version="1.0" encoding="utf-8"?>
<!-- Generator: Adobe Illustrator 24.0.2, SVG Export Plug-In . SVG Version: 6.00 Build 0)  -->
<svg version="1.1" id="Layer_1" xmlns="http://www.w3.org/2000/svg" xmlns:xlink="http://www.w3.org/1999/xlink" x="0px" y="0px"
	 viewBox="0 0 963.8 595.3" style="enable-background:new 0 0 963.8 595.3;" xml:space="preserve">
<style type="text/css">
	.st0{fill:url(#SVGID_1_);}
	.st1{fill:url(#SVGID_2_);}
	.st2{fill:none;stroke:url(#V_1_);stroke-width:19;stroke-linecap:round;stroke-miterlimit:10;}
</style>
<g id="logo">
	<g id="Planet">
		
			<linearGradient id="SVGID_1_" gradientUnits="userSpaceOnUse" x1="296.901" y1="299.2144" x2="344.0218" y2="173.2704" gradientTransform="matrix(0.7782 -0.628 -0.628 -0.7782 252.6236 723.6138)">
			<stop  offset="1.281658e-06" style="stop-color:#F7F7D4"/>
			<stop  offset="9.550000e-02" style="stop-color:#F8EDCB"/>
			<stop  offset="0.2748" style="stop-color:#ECC9B2"/>
			<stop  offset="0.5189" style="stop-color:#DC8F89"/>
			<stop  offset="0.815" style="stop-color:#C33F51"/>
			<stop  offset="1" style="stop-color:#B51134"/>
			<stop  offset="1" style="stop-color:#B20A2C"/>
			<stop  offset="1" style="stop-color:#DC1A17"/>
			<stop  offset="1" style="stop-color:#B20A2C"/>
		</linearGradient>
		<path class="st0" d="M348.4,292.7c15.7,3.8,29.1,15.6,34.2,32.2c7.7,25-6.4,51.6-31.4,59.3c-2.1,0.6-4.1,1.1-6.2,1.5
			c-4.1-1-8.2-2.6-12.1-4.8c-22.8-12.8-31-41.7-18.2-64.6c11.5-20.6,36.1-29.2,57.6-21.4C364.6,292.2,356.4,291.4,348.4,292.7z"/>
		
			<linearGradient id="SVGID_2_" gradientUnits="userSpaceOnUse" x1="287.1594" y1="328.9238" x2="345.3538" y2="173.3824" gradientTransform="matrix(0.7782 -0.628 -0.628 -0.7782 252.6236 723.6138)">
			<stop  offset="9.550000e-02" style="stop-color:#F8EDCB"/>
			<stop  offset="0.2748" style="stop-color:#ECC9B2"/>
			<stop  offset="0.5189" style="stop-color:#DC8F89"/>
			<stop  offset="0.8256" style="stop-color:#C33F51"/>
			<stop  offset="1" style="stop-color:#B20A2C"/>
			<stop  offset="1" style="stop-color:#DC1A17"/>
			<stop  offset="1" style="stop-color:#B20A2C"/>
		</linearGradient>
		<path class="st1" d="M394.1,311.6c0.1,0.1,0.1,0.2,0.2,0.2c0.2,0.3,0.4,0.5,0.6,0.8c0.1,0.1,0.2,0.2,0.2,0.3
			c0.2,0.3,0.4,0.6,0.6,0.9c0.1,0.1,0.1,0.2,0.1,0.2c9,14.2,10.1,32.8,1.3,48.6c-9.5,16.9-27.7,25.7-45.7,24
			c-0.6-0.1-1.2-0.1-1.7-0.2c-0.6-0.1-1.2-0.2-1.8-0.3c-0.5-0.1-0.9-0.2-1.4-0.3c-0.2,0-0.4-0.1-0.5-0.1c-0.4-0.1-0.9-0.2-1.3-0.3
			c2.1-0.3,4.1-0.8,6.2-1.5c5-1.5,9.7-3.9,13.9-6.9c4.1-3,7.7-6.6,10.6-10.7c2.9-4.1,5.2-8.6,6.7-13.3c1.9-5.9,2.6-12.3,2.1-18.5
			c-0.6-6.3-2.3-12.4-5.3-18c-1.4-2.7-3.1-5.2-4.9-7.6c-3.3-4.1-7.3-7.7-11.8-10.5c-4.4-2.7-9.2-4.8-14.2-6
			c9.2-1.5,18.6-0.3,27.1,3.5c0.5,0.2,0.9,0.4,1.4,0.7c0.4,0.2,0.8,0.4,1.1,0.6c0.2,0.1,0.5,0.2,0.7,0.4c0.2,0.1,0.4,0.2,0.6,0.3
			c0.1,0.1,0.3,0.1,0.4,0.2c0.4,0.3,0.9,0.5,1.3,0.8c0.4,0.3,0.8,0.5,1.2,0.8c0,0,0.1,0,0.1,0.1c0.4,0.3,0.9,0.6,1.3,0.9
			c0.9,0.6,1.7,1.3,2.5,1.9c0.4,0.3,0.8,0.7,1.2,1c0.5,0.5,1.1,1,1.6,1.5c0.4,0.3,0.7,0.7,1,1c0.2,0.2,0.3,0.3,0.5,0.5
			c0.4,0.4,0.8,0.8,1.1,1.2c0.1,0.1,0.2,0.2,0.3,0.3C392.4,309.4,393.3,310.5,394.1,311.6z"/>
	</g>
	
		<linearGradient id="V_1_" gradientUnits="userSpaceOnUse" x1="622.7566" y1="164.6164" x2="391.4926" y2="565.1773" gradientTransform="matrix(1 0 0 -1 0 596.7244)">
		<stop  offset="8.477105e-07" style="stop-color:#C31332"/>
		<stop  offset="0.134" style="stop-color:#B51032"/>
		<stop  offset="0.3857" style="stop-color:#911333"/>
		<stop  offset="0.725" style="stop-color:#590E35"/>
		<stop  offset="1" style="stop-color:#240A36"/>
		<stop  offset="1" style="stop-color:#B80B29"/>
		<stop  offset="1" style="stop-color:#B20A2C"/>
	</linearGradient>
	<path id="V" class="st2" d="M320.1,281.5c6.3-9.1,16.9-14.5,27.7-16.2c15.3-2.4,33.5,1,46.1,10.3c22.8,16.8,30.2,47.7,30.9,76
		c1,40.1-12,146.5,52.1,150.2c5.6-33.5,8.3-69.7,11.7-103.8c3.6-35.9,8.3-71.6,15.5-106.9c7.1-35,15.6-69.6,28.5-102.9
		c15.9-40.8,48.1-74.2,94-76.8c11.1-0.6,23.4,1.1,31.1,9.1c6.9,7.2,8.6,18.4,5.9,28.1s-9.2,17.8-16.8,24.3
		c-14.7,12.5-33.5,19.3-52.6,21.7c-52.6,6.6-105.4-12.5-151.1-36.8c-41.6-22.1-88.8-68.6-139.6-60.5c-9.1,1.4-18.5,5-24,12.5
		c-3,4.2-4.6,9.2-5,14.4c-1.4,17.9,11.9,34.7,28.6,41.5c16.9,6.9,37,5.5,54-0.1"/>
</g>
</svg>
