<?xml version="1.0" encoding="utf-8"?>
<!-- Generator: Adobe Illustrator 24.0.2, SVG Export Plug-In . SVG Version: 6.00 Build 0)  -->
<svg version="1.1" id="MainLogo" xmlns="http://www.w3.org/2000/svg" xmlns:xlink="http://www.w3.org/1999/xlink" x="0px" y="0px"
	 viewBox="0 0 963.8 595.3" style="enable-background:new 0 0 963.8 595.3;" xml:space="preserve">
<style type="text/css">
	.st0{fill:url(#SVGID_1_);stroke:url(#SVGID_2_);stroke-miterlimit:10;}
	.st1{fill:url(#SVGID_3_);}
	.st2{fill:url(#SVGID_4_);}
	.st3{fill:none;stroke:url(#V_1_);stroke-width:16;stroke-linecap:round;stroke-miterlimit:10;}
	.st4{fill:#99404D;}
	.st5{font-family:'CambriaMath';}
	.st6{font-size:83.326px;}
</style>
<g id="Layer_3">
	
		<linearGradient id="SVGID_1_" gradientUnits="userSpaceOnUse" x1="962.6951" y1="20.0426" x2="-19.6514" y2="587.2007" gradientTransform="matrix(1 0 0 -1 0 595.2756)">
		<stop  offset="2.930000e-02" style="stop-color:#FAACA8"/>
		<stop  offset="9.300000e-02" style="stop-color:#F6B1B1"/>
		<stop  offset="0.3233" style="stop-color:#EBC1CE"/>
		<stop  offset="0.5529" style="stop-color:#E3CDE3"/>
		<stop  offset="0.7796" style="stop-color:#DFD4EF"/>
		<stop  offset="1" style="stop-color:#DDD6F3"/>
	</linearGradient>
	
		<linearGradient id="SVGID_2_" gradientUnits="userSpaceOnUse" x1="-0.5" y1="297.6356" x2="964.28" y2="297.6356" gradientTransform="matrix(1 0 0 -1 0 595.2756)">
		<stop  offset="0" style="stop-color:#FFFFFF"/>
		<stop  offset="1" style="stop-color:#000000"/>
	</linearGradient>
	<rect y="0" class="st0" width="963.8" height="595.3"/>
</g>
<g id="logo">
	<g id="Planet">
		
			<linearGradient id="SVGID_3_" gradientUnits="userSpaceOnUse" x1="253.1105" y1="352.0257" x2="300.2313" y2="226.0816" gradientTransform="matrix(0.7782 -0.628 -0.628 -0.7782 251.9468 721.6976)">
			<stop  offset="1.281658e-06" style="stop-color:#FFFBD5"/>
			<stop  offset="9.550000e-02" style="stop-color:#FBEDCB"/>
			<stop  offset="0.2748" style="stop-color:#EFC9B2"/>
			<stop  offset="0.5189" style="stop-color:#DC8F89"/>
			<stop  offset="0.815" style="stop-color:#C33F51"/>
			<stop  offset="1" style="stop-color:#B51534"/>
			<stop  offset="1" style="stop-color:#B20A2C"/>
			<stop  offset="1" style="stop-color:#DD1818"/>
			<stop  offset="1" style="stop-color:#B20A2C"/>
		</linearGradient>
		<path class="st1" d="M280.5,277.2c15.7,3.8,29.1,15.6,34.2,32.2c7.7,25-6.4,51.6-31.4,59.3c-2.1,0.6-4.1,1.1-6.2,1.5
			c-4.1-1-8.2-2.6-12.1-4.8c-22.8-12.8-31-41.7-18.2-64.6c11.5-20.6,36.1-29.2,57.6-21.4C296.7,276.7,288.5,275.9,280.5,277.2z"/>
		
			<linearGradient id="SVGID_4_" gradientUnits="userSpaceOnUse" x1="243.3689" y1="381.735" x2="301.5633" y2="226.1936" gradientTransform="matrix(0.7782 -0.628 -0.628 -0.7782 251.9468 721.6976)">
			<stop  offset="9.550000e-02" style="stop-color:#FBEDCB"/>
			<stop  offset="0.2748" style="stop-color:#EFC9B2"/>
			<stop  offset="0.5189" style="stop-color:#DC8F89"/>
			<stop  offset="0.8256" style="stop-color:#C33F51"/>
			<stop  offset="1" style="stop-color:#B20A2C"/>
			<stop  offset="1" style="stop-color:#DD1818"/>
			<stop  offset="1" style="stop-color:#B20A2C"/>
		</linearGradient>
		<path class="st2" d="M326.2,296.1c0.1,0.1,0.1,0.2,0.2,0.2c0.2,0.3,0.4,0.5,0.6,0.8c0.1,0.1,0.2,0.2,0.2,0.3
			c0.2,0.3,0.4,0.6,0.6,0.9c0.1,0.1,0.1,0.2,0.1,0.2c9,14.2,10.1,32.8,1.3,48.6c-9.5,16.9-27.7,25.7-45.7,24
			c-0.6-0.1-1.2-0.1-1.7-0.2c-0.6-0.1-1.2-0.2-1.8-0.3c-0.5-0.1-0.9-0.2-1.4-0.3c-0.2,0-0.4-0.1-0.5-0.1c-0.4-0.1-0.9-0.2-1.3-0.3
			c2.1-0.3,4.1-0.8,6.2-1.5c5-1.5,9.7-3.9,13.9-6.9c4.1-3,7.7-6.6,10.6-10.7c2.9-4.1,5.2-8.6,6.7-13.3c1.9-5.9,2.6-12.3,2.1-18.5
			c-0.6-6.3-2.3-12.4-5.3-18c-1.4-2.7-3.1-5.2-4.9-7.6c-3.3-4.1-7.3-7.7-11.8-10.5c-4.4-2.7-9.2-4.8-14.2-6
			c9.2-1.5,18.6-0.3,27.1,3.5c0.5,0.2,0.9,0.4,1.4,0.7c0.4,0.2,0.8,0.4,1.1,0.6c0.2,0.1,0.5,0.2,0.7,0.4c0.2,0.1,0.4,0.2,0.6,0.3
			c0.1,0.1,0.3,0.1,0.4,0.2c0.4,0.3,0.9,0.5,1.3,0.8c0.4,0.3,0.8,0.5,1.2,0.8c0,0,0.1,0,0.1,0.1c0.4,0.3,0.9,0.6,1.3,0.9
			c0.9,0.6,1.7,1.3,2.5,1.9c0.4,0.3,0.8,0.7,1.2,1c0.5,0.5,1.1,1,1.6,1.5c0.4,0.3,0.7,0.7,1,1c0.2,0.2,0.3,0.3,0.5,0.5
			c0.4,0.4,0.8,0.8,1.1,1.2c0.1,0.1,0.2,0.2,0.3,0.3C324.5,293.9,325.4,295,326.2,296.1z"/>
	</g>
	
		<linearGradient id="V_1_" gradientUnits="userSpaceOnUse" x1="553.8411" y1="180.4061" x2="324.3235" y2="577.9421" gradientTransform="matrix(1 0 0 -1 0 595.2756)">
		<stop  offset="8.477105e-07" style="stop-color:#C31432"/>
		<stop  offset="0.134" style="stop-color:#B51332"/>
		<stop  offset="0.3857" style="stop-color:#911133"/>
		<stop  offset="0.725" style="stop-color:#580E35"/>
		<stop  offset="1" style="stop-color:#240B36"/>
		<stop  offset="1" style="stop-color:#B80C29"/>
		<stop  offset="1" style="stop-color:#B20A2C"/>
	</linearGradient>
	<path id="V" class="st3" d="M252.2,266c6.3-9.1,16.9-14.5,27.7-16.2c15.3-2.4,33.5,1,46.1,10.3c22.8,16.8,30.2,47.7,30.9,76
		c1,40.1-12,146.5,52.1,150.2c5.6-33.5,8.3-69.7,11.7-103.8c3.6-35.9,8.3-71.6,15.5-106.9c7.1-35,15.6-69.6,28.5-102.9
		c15.9-40.8,48.1-74.2,94-76.8c11.1-0.6,23.4,1.1,31.1,9.1c6.9,7.2,8.6,18.4,5.9,28.1s-9.2,17.8-16.8,24.3
		c-14.7,12.5-33.5,19.3-52.6,21.7c-52.6,6.6-105.4-12.5-151.1-36.8c-41.6-22.1-88.8-68.6-139.6-60.5c-9.1,1.4-18.5,5-24,12.5
		c-3,4.2-4.6,9.2-5,14.4c-1.4,17.9,11.9,34.7,28.6,41.5c16.9,6.9,37,5.5,54-0.1"/>
	<g id="enera">
		<text transform="matrix(1.0339 -0.3023 0.2807 0.9598 468.0551 283.4401)" class="st4 st5 st6">enera</text>
	</g>
</g>
</svg>
