<?xml version="1.0" encoding="utf-8"?>
<!-- Generator: Adobe Illustrator 24.0.2, SVG Export Plug-In . SVG Version: 6.00 Build 0)  -->
<svg version="1.1" xmlns="http://www.w3.org/2000/svg" xmlns:xlink="http://www.w3.org/1999/xlink" x="0px" y="0px"
	 viewBox="0 0 963.78 595.28" style="enable-background:new 0 0 963.78 595.28;" xml:space="preserve">
<style type="text/css">
	.st0{fill:url(#SVGID_1_);stroke:url(#SVGID_2_);stroke-miterlimit:10;}
	.st1{fill:url(#SVGID_3_);}
	.st2{fill:url(#SVGID_4_);}
	.st3{fill:url(#SVGID_5_);}
	.st4{fill:url(#SVGID_6_);}
	.st5{fill:none;stroke:url(#SVGID_7_);stroke-width:16;stroke-linecap:round;stroke-miterlimit:10;}
	.st6{fill:#D9A7C7;stroke:#000000;stroke-miterlimit:10;}
	.st7{font-family:'BookAntiqua';}
	.st8{font-size:83.326px;}
</style>
<g id="Layer_3">
	<linearGradient id="SVGID_1_" gradientUnits="userSpaceOnUse" x1="962.696" y1="575.2314" x2="-19.6506" y2="8.0733">
		<stop  offset="0.0293" style="stop-color:#FAACA8"/>
		<stop  offset="0.093" style="stop-color:#F6B1B1"/>
		<stop  offset="0.3233" style="stop-color:#EBC1CE"/>
		<stop  offset="0.5529" style="stop-color:#E3CDE3"/>
		<stop  offset="0.7796" style="stop-color:#DFD4EF"/>
		<stop  offset="1" style="stop-color:#DDD6F3"/>
	</linearGradient>
	<linearGradient id="SVGID_2_" gradientUnits="userSpaceOnUse" x1="-0.5" y1="297.6378" x2="964.2795" y2="297.6378">
		<stop  offset="0" style="stop-color:#FFFFFF"/>
		<stop  offset="1" style="stop-color:#000000"/>
	</linearGradient>
	<rect x="0" y="0" class="st0" width="963.78" height="595.28"/>
</g>
<g id="Layer_2">
	
		<linearGradient id="SVGID_3_" gradientUnits="userSpaceOnUse" x1="268.8191" y1="84.0426" x2="310.4163" y2="195.2231" gradientTransform="matrix(0.8876 -0.4607 0.4607 0.8876 -99.7948 178.1279)">
		<stop  offset="8.527564e-07" style="stop-color:#FFFBD5"/>
		<stop  offset="0.0955" style="stop-color:#FBEDCB"/>
		<stop  offset="0.2748" style="stop-color:#EFC9B2"/>
		<stop  offset="0.5189" style="stop-color:#DC8F89"/>
		<stop  offset="0.815" style="stop-color:#C33F51"/>
		<stop  offset="1" style="stop-color:#B20A2C"/>
		<stop  offset="1" style="stop-color:#DD1818"/>
		<stop  offset="1" style="stop-color:#B20A2C"/>
	</linearGradient>
	<path class="st1" d="M277.41,219c0,0-0.01-0.01-0.01-0.01L277.41,219z"/>
	
		<linearGradient id="SVGID_4_" gradientUnits="userSpaceOnUse" x1="268.1049" y1="81.3883" x2="318.2509" y2="215.4178" gradientTransform="matrix(0.8876 -0.4607 0.4607 0.8876 -99.7948 178.1279)">
		<stop  offset="8.527564e-07" style="stop-color:#FFFBD5"/>
		<stop  offset="0.0955" style="stop-color:#FBEDCB"/>
		<stop  offset="0.2748" style="stop-color:#EFC9B2"/>
		<stop  offset="0.5189" style="stop-color:#DC8F89"/>
		<stop  offset="0.815" style="stop-color:#C33F51"/>
		<stop  offset="1" style="stop-color:#B20A2C"/>
		<stop  offset="1" style="stop-color:#DD1818"/>
		<stop  offset="1" style="stop-color:#B20A2C"/>
	</linearGradient>
	<path class="st2" d="M280.31,220.92c-0.94-0.68-1.91-1.31-2.9-1.92C278.4,219.61,279.37,220.24,280.31,220.92z"/>
	<g>
		
			<linearGradient id="SVGID_5_" gradientUnits="userSpaceOnUse" x1="242.2855" y1="254.04" x2="289.4063" y2="379.984" gradientTransform="matrix(0.8713 -0.4907 0.4907 0.8713 -104.8888 191.4761)">
			<stop  offset="8.527564e-07" style="stop-color:#FFFBD5"/>
			<stop  offset="0.0955" style="stop-color:#FBEDCB"/>
			<stop  offset="0.2748" style="stop-color:#EFC9B2"/>
			<stop  offset="0.5189" style="stop-color:#DC8F89"/>
			<stop  offset="0.815" style="stop-color:#C33F51"/>
			<stop  offset="1" style="stop-color:#B20A2C"/>
			<stop  offset="1" style="stop-color:#DD1818"/>
			<stop  offset="1" style="stop-color:#B20A2C"/>
		</linearGradient>
		<path class="st3" d="M284.7,291.18c14.88,6.36,26.12,20.17,28.41,37.38c3.45,25.95-14.79,49.81-40.76,53.26
			c-2.14,0.28-4.25,0.43-6.36,0.41c-3.92-1.66-7.69-3.9-11.16-6.7c-20.41-16.41-23.66-46.26-7.24-66.67
			c14.78-18.37,40.44-22.82,60.3-11.54C300.81,293.33,292.81,291.22,284.7,291.18z"/>
		
			<linearGradient id="SVGID_6_" gradientUnits="userSpaceOnUse" x1="232.5985" y1="224.4118" x2="290.7929" y2="379.9532" gradientTransform="matrix(0.8713 -0.4907 0.4907 0.8713 -104.8888 191.4761)">
			<stop  offset="8.527564e-07" style="stop-color:#FFFBD5"/>
			<stop  offset="0.0955" style="stop-color:#FBEDCB"/>
			<stop  offset="0.2748" style="stop-color:#EFC9B2"/>
			<stop  offset="0.5189" style="stop-color:#DC8F89"/>
			<stop  offset="0.815" style="stop-color:#C33F51"/>
			<stop  offset="1" style="stop-color:#B20A2C"/>
			<stop  offset="1" style="stop-color:#DD1818"/>
			<stop  offset="1" style="stop-color:#B20A2C"/>
		</linearGradient>
		<path class="st4" d="M326.73,317.4c0.04,0.08,0.09,0.17,0.13,0.25c0.15,0.3,0.29,0.6,0.43,0.91c0.06,0.13,0.12,0.25,0.17,0.37
			c0.15,0.32,0.29,0.65,0.43,0.97c0.04,0.08,0.07,0.17,0.11,0.25c6.52,15.53,4.54,34.06-6.76,48.12
			c-12.12,15.06-31.54,20.77-49.09,16.13c-0.56-0.15-1.13-0.32-1.69-0.49c-0.57-0.17-1.12-0.35-1.69-0.55
			c-0.44-0.15-0.88-0.3-1.31-0.48c-0.17-0.05-0.34-0.12-0.52-0.2c-0.41-0.17-0.81-0.32-1.21-0.5c2.11,0.02,4.22-0.13,6.36-0.41
			c5.15-0.67,10.2-2.22,14.85-4.53c4.52-2.24,8.66-5.22,12.25-8.77c3.55-3.52,6.54-7.6,8.83-12.04c2.85-5.54,4.6-11.66,5.09-17.87
			c0.49-6.26-0.26-12.62-2.21-18.59c-0.94-2.87-2.15-5.65-3.62-8.28c-2.57-4.62-5.92-8.79-9.87-12.31
			c-3.84-3.43-8.24-6.23-12.98-8.25c9.28,0.04,18.4,2.8,26.16,7.95c0.43,0.28,0.86,0.57,1.27,0.88c0.35,0.25,0.69,0.49,1.03,0.75
			c0.21,0.15,0.41,0.3,0.61,0.46c0.16,0.13,0.33,0.26,0.5,0.39c0.12,0.09,0.24,0.19,0.35,0.29c0.4,0.33,0.8,0.66,1.19,1.01
			c0.36,0.32,0.72,0.65,1.08,0.98c0.03,0.03,0.05,0.05,0.08,0.08c0.39,0.36,0.76,0.72,1.14,1.1c0.76,0.74,1.47,1.52,2.16,2.32
			c0.35,0.4,0.7,0.81,1.04,1.22c0.46,0.56,0.9,1.14,1.34,1.73c0.29,0.39,0.57,0.79,0.84,1.18c0.13,0.19,0.26,0.37,0.39,0.56
			c0.31,0.46,0.61,0.92,0.91,1.39c0.07,0.11,0.14,0.23,0.21,0.34C325.44,314.98,326.12,316.17,326.73,317.4z"/>
	</g>
	<linearGradient id="SVGID_7_" gradientUnits="userSpaceOnUse" x1="553.8373" y1="414.8716" x2="324.3131" y2="17.3241">
		<stop  offset="8.527564e-07" style="stop-color:#C31432"/>
		<stop  offset="0.134" style="stop-color:#B51332"/>
		<stop  offset="0.3857" style="stop-color:#911133"/>
		<stop  offset="0.725" style="stop-color:#580E35"/>
		<stop  offset="1" style="stop-color:#240B36"/>
		<stop  offset="1" style="stop-color:#B20A2C"/>
		<stop  offset="1" style="stop-color:#B80C29"/>
		<stop  offset="1" style="stop-color:#C91122"/>
		<stop  offset="1" style="stop-color:#D4151C"/>
		<stop  offset="1" style="stop-color:#DB1719"/>
		<stop  offset="1" style="stop-color:#DD1818"/>
	</linearGradient>
	<path class="st5" d="M252.19,265.97c6.31-9.13,16.86-14.53,27.66-16.19c15.26-2.35,33.47,0.98,46.06,10.25
		c22.82,16.81,30.21,47.68,30.89,76.02c0.96,40.12-11.95,146.55,52.15,150.2c5.56-33.48,8.3-69.72,11.7-103.8
		c3.58-35.85,8.33-71.62,15.5-106.93c7.1-35.02,15.59-69.56,28.54-102.89c15.86-40.8,48.1-74.19,94.02-76.83
		c11.13-0.64,23.38,1.06,31.09,9.12c6.91,7.23,8.62,18.43,5.94,28.07c-2.68,9.64-9.21,17.83-16.83,24.32
		c-14.66,12.47-33.53,19.3-52.63,21.7c-52.58,6.58-105.4-12.47-151.15-36.8c-41.63-22.14-88.75-68.57-139.58-60.54
		c-9.14,1.44-18.52,5.02-23.97,12.5c-3.02,4.15-4.61,9.24-5,14.36c-1.38,17.9,11.95,34.68,28.57,41.49
		c16.87,6.91,36.99,5.54,54.02-0.14"/>
	<g id="XMLID_1_">
		<text transform="matrix(1.0339 -0.3023 0.2807 0.9598 468.0757 283.4513)" class="st6 st7 st8">enera</text>
	</g>
</g>
</svg>
