<?xml version="1.0" encoding="utf-8"?>
<!-- Generator: Adobe Illustrator 24.0.2, SVG Export Plug-In . SVG Version: 6.00 Build 0)  -->
<svg version="1.1" id="Layer_1" xmlns="http://www.w3.org/2000/svg" xmlns:xlink="http://www.w3.org/1999/xlink" x="0px" y="0px"
	 viewBox="0 0 963.8 595.3" style="enable-background:new 0 0 963.8 595.3;" xml:space="preserve">
<style type="text/css">
	.st0{fill:url(#SVGID_1_);}
	.st1{fill:url(#SVGID_2_);}
	.st2{fill:none;stroke:url(#V_1_);stroke-width:23;stroke-linecap:round;stroke-miterlimit:10;}
</style>
<g id="logo">
	<g id="Planet">
		
			<linearGradient id="SVGID_1_" gradientUnits="userSpaceOnUse" x1="294.2351" y1="293.57" x2="343.6823" y2="425.7321" gradientTransform="matrix(0.4575 -0.8892 0.8892 0.4575 -112.3282 460.0075)">
			<stop  offset="1.281658e-06" style="stop-color:#F7F7D4"/>
			<stop  offset="9.550000e-02" style="stop-color:#F8EDCB"/>
			<stop  offset="0.2748" style="stop-color:#ECC9B2"/>
			<stop  offset="0.5189" style="stop-color:#DC8F89"/>
			<stop  offset="0.815" style="stop-color:#C33F51"/>
			<stop  offset="1" style="stop-color:#B51134"/>
			<stop  offset="1" style="stop-color:#B20A2C"/>
			<stop  offset="1" style="stop-color:#DC1A17"/>
			<stop  offset="1" style="stop-color:#B20A2C"/>
		</linearGradient>
		<path class="st0" d="M375.9,311.3c-11.9-13.8-29.8-19.4-46.5-16.4c-12.3,8-20.9,21.3-22.4,37c-2.6,27.4,17.6,51.7,44.9,54.3
			c4.7,0.5,9.3,0.2,13.6-0.5c1.8-1.3,3.6-2.6,5.3-4.1C391.7,363.5,393.9,332,375.9,311.3z"/>
		
			<linearGradient id="SVGID_2_" gradientUnits="userSpaceOnUse" x1="288.2824" y1="261.1971" x2="349.35" y2="424.418" gradientTransform="matrix(0.4575 -0.8892 0.8892 0.4575 -112.3282 460.0075)">
			<stop  offset="9.550000e-02" style="stop-color:#F8EDCB"/>
			<stop  offset="0.2748" style="stop-color:#ECC9B2"/>
			<stop  offset="0.5189" style="stop-color:#DC8F89"/>
			<stop  offset="0.8256" style="stop-color:#C33F51"/>
			<stop  offset="1" style="stop-color:#B20A2C"/>
			<stop  offset="1" style="stop-color:#DC1A17"/>
			<stop  offset="1" style="stop-color:#B20A2C"/>
		</linearGradient>
		<path class="st1" d="M381.7,293.8c0.1,0.1,0.2,0.1,0.3,0.1c0.3,0.2,0.6,0.3,0.9,0.5c0.1,0.1,0.3,0.1,0.3,0.2
			c0.3,0.2,0.6,0.4,1,0.6c0.1,0.1,0.2,0.1,0.2,0.1c14.7,9.8,23.6,27.2,21.9,46.1c-1.9,20.3-15.7,36.4-33.7,42.4
			c-0.6,0.2-1.2,0.4-1.7,0.5c-0.6,0.2-1.2,0.3-1.9,0.5c-0.5,0.1-0.9,0.2-1.5,0.3c-0.2,0.1-0.4,0.1-0.5,0.1c-0.4,0.1-0.9,0.2-1.4,0.3
			c1.9-1.2,3.6-2.5,5.3-4.1c4.2-3.6,7.7-7.9,10.4-12.5c2.7-4.6,4.6-9.6,5.6-14.8c1-5.2,1.3-10.5,0.8-15.6
			c-0.7-6.5-2.7-12.9-5.8-18.6c-3.3-5.8-7.5-10.9-12.7-15c-2.5-2-5.2-3.7-7.9-5.2c-4.9-2.5-10.3-4.3-15.8-5.1
			c-5.4-0.7-10.9-0.7-16.2,0.3c8.2-5.3,17.7-8.2,27.5-8.1c0.6,0,1,0,1.6,0.1c0.5,0,0.9,0,1.3,0.1c0.2,0,0.6,0,0.8,0.1
			c0.2,0,0.5,0,0.7,0c0.1,0.1,0.3,0,0.5,0c0.5,0.1,1.1,0.1,1.6,0.2s1,0.1,1.5,0.3c0,0,0.1,0,0.1,0.1c0.5,0.1,1.1,0.2,1.6,0.3
			c1.1,0.2,2.2,0.5,3.2,0.8c0.5,0.1,1.1,0.3,1.6,0.5c0.7,0.3,1.5,0.5,2.2,0.8c0.5,0.1,1,0.4,1.4,0.5c0.3,0.1,0.4,0.2,0.7,0.3
			c0.6,0.2,1.1,0.4,1.6,0.7c0.1,0.1,0.3,0.1,0.4,0.2C379.1,292.4,380.4,293.1,381.7,293.8z"/>
	</g>
	
		<linearGradient id="V_1_" gradientUnits="userSpaceOnUse" x1="624.081" y1="433.018" x2="390.5178" y2="28.4747" gradientTransform="matrix(1 0 0 1 0 1.4489)">
		<stop  offset="8.477106e-07" style="stop-color:#C31332"/>
		<stop  offset="0.134" style="stop-color:#B51032"/>
		<stop  offset="0.3857" style="stop-color:#911333"/>
		<stop  offset="0.725" style="stop-color:#590E35"/>
		<stop  offset="1" style="stop-color:#240A36"/>
		<stop  offset="1" style="stop-color:#B80B29"/>
		<stop  offset="1" style="stop-color:#B20A2C"/>
	</linearGradient>
	<path id="V" class="st2" d="M320.1,281.5c6.3-9.1,16.9-14.5,27.7-16.2c15.3-2.4,33.5,1,46.1,10.3c22.8,16.8,30.2,47.7,30.9,76
		c1,40.1-12,146.5,52.1,150.2c5.6-33.5,8.3-69.7,11.7-103.8c3.6-35.9,8.3-71.6,15.5-106.9c7.1-35,15.6-69.6,28.5-102.9
		c15.9-40.8,48.1-74.2,94-76.8c11.1-0.6,23.4,1.1,31.1,9.1c6.9,7.2,8.6,18.4,5.9,28.1s-9.2,17.8-16.8,24.3
		c-14.7,12.5-33.5,19.3-52.6,21.7c-52.6,6.6-105.4-12.5-151.1-36.8c-41.6-22.1-88.8-68.6-139.6-60.5c-9.1,1.4-18.5,5-24,12.5
		c-3,4.2-4.6,9.2-5,14.4c-1.4,17.9,11.9,34.7,28.6,41.5c16.9,6.9,37,5.5,54-0.1"/>
</g>
</svg>
